<svg width="80" height="40" viewBox="0 0 80 40" fill="none" xmlns="http://www.w3.org/2000/svg">
<path d="M35.24 10H33.34C31.15 10 30 11.15 30 13.33V15.23C30 17.41 31.15 18.56 33.33 18.56H35.23C37.41 18.56 38.56 17.41 38.56 15.23V13.33C38.57 11.15 37.42 10 35.24 10Z" fill="#FDFDFD"/>
<path opacity="0.4" d="M46.6699 10H44.7699C42.5899 10 41.4399 11.15 41.4399 13.33V15.23C41.4399 17.41 42.5899 18.56 44.7699 18.56H46.6699C48.8499 18.56 49.9999 17.41 49.9999 15.23V13.33C49.9999 11.15 48.8499 10 46.6699 10Z" fill="#B2ABAB" fill-opacity="0.49"/>
<path d="M46.6699 21.4299H44.7699C42.5899 21.4299 41.4399 22.5799 41.4399 24.7599V26.6599C41.4399 28.8399 42.5899 29.9899 44.7699 29.9899H46.6699C48.8499 29.9899 49.9999 28.8399 49.9999 26.6599V24.7599C49.9999 22.5799 48.8499 21.4299 46.6699 21.4299Z" fill="#FDFDFD"/>
<path opacity="0.4" d="M35.24 21.4299H33.34C31.15 21.4299 30 22.5799 30 24.7599V26.6599C30 28.8499 31.15 29.9999 33.33 29.9999H35.23C37.41 29.9999 38.56 28.8499 38.56 26.6699V24.7699C38.57 22.5799 37.42 21.4299 35.24 21.4299Z" fill="#B2ABAB" fill-opacity="0.49"/>
</svg>
