<svg width="40" height="40" viewBox="0 0 40 40" fill="none" xmlns="http://www.w3.org/2000/svg">
<path d="M15.24 10H13.34C11.15 10 10 11.15 10 13.33V15.23C10 17.41 11.15 18.56 13.33 18.56H15.23C17.41 18.56 18.56 17.41 18.56 15.23V13.33C18.57 11.15 17.42 10 15.24 10Z" fill="#0D062D"/>
<path opacity="0.4" d="M26.6699 10H24.7699C22.5899 10 21.4399 11.15 21.4399 13.33V15.23C21.4399 17.41 22.5899 18.56 24.7699 18.56H26.6699C28.8499 18.56 29.9999 17.41 29.9999 15.23V13.33C29.9999 11.15 28.8499 10 26.6699 10Z" fill="#0D062D"/>
<path d="M26.6699 21.4299H24.7699C22.5899 21.4299 21.4399 22.5799 21.4399 24.7599V26.6599C21.4399 28.8399 22.5899 29.9899 24.7699 29.9899H26.6699C28.8499 29.9899 29.9999 28.8399 29.9999 26.6599V24.7599C29.9999 22.5799 28.8499 21.4299 26.6699 21.4299Z" fill="#0D062D"/>
<path opacity="0.4" d="M15.24 21.4299H13.34C11.15 21.4299 10 22.5799 10 24.7599V26.6599C10 28.8499 11.15 29.9999 13.33 29.9999H15.23C17.41 29.9999 18.56 28.8499 18.56 26.6699V24.7699C18.57 22.5799 17.42 21.4299 15.24 21.4299Z" fill="#0D062D"/>
</svg>
