<svg width="20" height="20" viewBox="0 0 20 20" fill="none" xmlns="http://www.w3.org/2000/svg">
<path d="M2 9.79483C2 6.70067 2 5.15318 2.9376 4.19236C3.8744 3.23071 5.3832 3.23071 8.4 3.23071H11.6C14.6168 3.23071 16.1256 3.23071 17.0624 4.19236C18 5.15318 18 6.70067 18 9.79483V11.4359C18 14.53 18 16.0775 17.0624 17.0383C16.1256 18 14.6168 18 11.6 18H8.4C5.3832 18 3.8744 18 2.9376 17.0383C2 16.0775 2 14.53 2 11.4359V9.79483Z" stroke="#EDF2F7" stroke-width="1.37144"/>
<path d="M5.9999 3.23077V2M13.9999 3.23077V2M2.3999 7.33334H17.5999" stroke="#EDF2F7" stroke-width="1.37144" stroke-linecap="round"/>
<path d="M14.8002 13.8975C14.8002 14.1151 14.7159 14.3238 14.5659 14.4777C14.4159 14.6316 14.2124 14.718 14.0002 14.718C13.788 14.718 13.5845 14.6316 13.4345 14.4777C13.2845 14.3238 13.2002 14.1151 13.2002 13.8975C13.2002 13.6799 13.2845 13.4712 13.4345 13.3173C13.5845 13.1634 13.788 13.077 14.0002 13.077C14.2124 13.077 14.4159 13.1634 14.5659 13.3173C14.7159 13.4712 14.8002 13.6799 14.8002 13.8975ZM14.8002 10.6154C14.8002 10.8331 14.7159 11.0418 14.5659 11.1956C14.4159 11.3495 14.2124 11.436 14.0002 11.436C13.788 11.436 13.5845 11.3495 13.4345 11.1956C13.2845 11.0418 13.2002 10.8331 13.2002 10.6154C13.2002 10.3978 13.2845 10.1891 13.4345 10.0352C13.5845 9.88137 13.788 9.79492 14.0002 9.79492C14.2124 9.79492 14.4159 9.88137 14.5659 10.0352C14.7159 10.1891 14.8002 10.3978 14.8002 10.6154ZM10.8002 13.8975C10.8002 14.1151 10.7159 14.3238 10.5659 14.4777C10.4159 14.6316 10.2124 14.718 10.0002 14.718C9.78802 14.718 9.58454 14.6316 9.43451 14.4777C9.28448 14.3238 9.2002 14.1151 9.2002 13.8975C9.2002 13.6799 9.28448 13.4712 9.43451 13.3173C9.58454 13.1634 9.78802 13.077 10.0002 13.077C10.2124 13.077 10.4159 13.1634 10.5659 13.3173C10.7159 13.4712 10.8002 13.6799 10.8002 13.8975ZM10.8002 10.6154C10.8002 10.8331 10.7159 11.0418 10.5659 11.1956C10.4159 11.3495 10.2124 11.436 10.0002 11.436C9.78802 11.436 9.58454 11.3495 9.43451 11.1956C9.28448 11.0418 9.2002 10.8331 9.2002 10.6154C9.2002 10.3978 9.28448 10.1891 9.43451 10.0352C9.58454 9.88137 9.78802 9.79492 10.0002 9.79492C10.2124 9.79492 10.4159 9.88137 10.5659 10.0352C10.7159 10.1891 10.8002 10.3978 10.8002 10.6154ZM6.8002 13.8975C6.8002 14.1151 6.71591 14.3238 6.56588 14.4777C6.41585 14.6316 6.21237 14.718 6.0002 14.718C5.78802 14.718 5.58454 14.6316 5.43451 14.4777C5.28448 14.3238 5.2002 14.1151 5.2002 13.8975C5.2002 13.6799 5.28448 13.4712 5.43451 13.3173C5.58454 13.1634 5.78802 13.077 6.0002 13.077C6.21237 13.077 6.41585 13.1634 6.56588 13.3173C6.71591 13.4712 6.8002 13.6799 6.8002 13.8975ZM6.8002 10.6154C6.8002 10.8331 6.71591 11.0418 6.56588 11.1956C6.41585 11.3495 6.21237 11.436 6.0002 11.436C5.78802 11.436 5.58454 11.3495 5.43451 11.1956C5.28448 11.0418 5.2002 10.8331 5.2002 10.6154C5.2002 10.3978 5.28448 10.1891 5.43451 10.0352C5.58454 9.88137 5.78802 9.79492 6.0002 9.79492C6.21237 9.79492 6.41585 9.88137 6.56588 10.0352C6.71591 10.1891 6.8002 10.3978 6.8002 10.6154Z" fill="#EDF2F7"/>
</svg>
