<svg width="16" height="16" viewBox="0 0 16 16" fill="none" xmlns="http://www.w3.org/2000/svg">
<path d="M6 11.8335C5.93333 11.8335 5.87333 11.8202 5.80667 11.7935C5.62 11.7202 5.5 11.5335 5.5 11.3335V7.3335C5.5 7.06016 5.72667 6.8335 6 6.8335C6.27333 6.8335 6.5 7.06016 6.5 7.3335V10.1268L6.98 9.64683C7.17333 9.4535 7.49333 9.4535 7.68667 9.64683C7.88 9.84016 7.88 10.1602 7.68667 10.3535L6.35333 11.6868C6.26 11.7802 6.12667 11.8335 6 11.8335Z" fill="#292D32"/>
<path d="M5.99964 11.8334C5.87297 11.8334 5.7463 11.7867 5.6463 11.6867L4.31297 10.3534C4.11964 10.16 4.11964 9.84004 4.31297 9.64671C4.5063 9.45338 4.8263 9.45338 5.01964 9.64671L6.35297 10.98C6.5463 11.1734 6.5463 11.4934 6.35297 11.6867C6.25297 11.7867 6.1263 11.8334 5.99964 11.8334Z" fill="#292D32"/>
<path d="M9.99967 15.1668H5.99967C2.37967 15.1668 0.833008 13.6202 0.833008 10.0002V6.00016C0.833008 2.38016 2.37967 0.833496 5.99967 0.833496H9.33301C9.60634 0.833496 9.83301 1.06016 9.83301 1.3335C9.83301 1.60683 9.60634 1.8335 9.33301 1.8335H5.99967C2.92634 1.8335 1.83301 2.92683 1.83301 6.00016V10.0002C1.83301 13.0735 2.92634 14.1668 5.99967 14.1668H9.99967C13.073 14.1668 14.1663 13.0735 14.1663 10.0002V6.66683C14.1663 6.3935 14.393 6.16683 14.6663 6.16683C14.9397 6.16683 15.1663 6.3935 15.1663 6.66683V10.0002C15.1663 13.6202 13.6197 15.1668 9.99967 15.1668Z" fill="#292D32"/>
<path d="M14.6663 7.16682H11.9997C9.71967 7.16682 8.83301 6.28016 8.83301 4.00016V1.33349C8.83301 1.13349 8.95301 0.946822 9.13967 0.873489C9.32634 0.793489 9.53967 0.840155 9.68634 0.980155L15.0197 6.31349C15.1597 6.45349 15.2063 6.67349 15.1263 6.86016C15.0463 7.04682 14.8663 7.16682 14.6663 7.16682ZM9.83301 2.54016V4.00016C9.83301 5.72016 10.2797 6.16682 11.9997 6.16682H13.4597L9.83301 2.54016Z" fill="#292D32"/>
</svg>
