<svg width="40" height="40" viewBox="0 0 40 40" fill="none" xmlns="http://www.w3.org/2000/svg">
<path d="M23 20C23 18.34 21.66 17 20 17C18.34 17 17 18.34 17 20C17 21.66 18.34 23 20 23C20.41 23 20.81 22.92 21.17 22.76" stroke="#B2ABAB" stroke-width="1.5" stroke-miterlimit="10" stroke-linecap="round" stroke-linejoin="round"/>
<path d="M14.8799 28.5801L15.9699 29.2101C16.7599 29.6801 17.7799 29.4001 18.2499 28.6101L18.3599 28.4201C19.2599 26.8501 20.7399 26.8501 21.6499 28.4201L21.7599 28.6101C22.2299 29.4001 23.2499 29.6801 24.0399 29.2101L25.7699 28.2201C26.6799 27.7001 26.9899 26.5301 26.4699 25.6301C25.5599 24.0601 26.2999 22.7801 28.1099 22.7801C29.1499 22.7801 30.0099 21.9301 30.0099 20.8801V19.1201C30.0099 18.0801 29.1599 17.2201 28.1099 17.2201C27.0999 17.2201 26.4199 16.8201 26.1799 16.1901C25.9899 15.7001 26.0699 15.0601 26.4699 14.3701C26.9899 13.4601 26.6799 12.3001 25.7699 11.7801L24.9599 11.3201" stroke="#B2ABAB" stroke-width="1.5" stroke-miterlimit="10" stroke-linecap="round" stroke-linejoin="round"/>
<path d="M21.64 11.5799C20.74 13.1499 19.26 13.1499 18.35 11.5799L18.24 11.3899C17.78 10.5999 16.76 10.3199 15.97 10.7899L14.24 11.7799C13.33 12.2999 13.02 13.4699 13.54 14.3799C14.45 15.9399 13.71 17.2199 11.9 17.2199C10.86 17.2199 10 18.0699 10 19.1199V20.8799C10 21.9199 10.85 22.7799 11.9 22.7799C13.71 22.7799 14.45 24.0599 13.54 25.6299" stroke="#B2ABAB" stroke-width="1.5" stroke-miterlimit="10" stroke-linecap="round" stroke-linejoin="round"/>
</svg>
